<?xml version="1.0" encoding="UTF-8"?>
<svg id="Layer_1" data-name="Layer 1" xmlns="http://www.w3.org/2000/svg" viewBox="0 0 150.82 125.53">
  <defs>
    <style>
      .cls-1 {
        fill: #fefefe;
      }
    </style>
  </defs>
  <path class="cls-1" d="M69.73,102.8l-.18-61.66-24.48,61.52c-2.54.25-4.4.43-6.76-.07L14.4,41.08l-.2,61.72-14.21-.02V21.09s19.8-.08,19.8-.08l21.84,55.62,21.75-55.63,20.53.09v81.69s-14.2.02-14.2.02Z"/>
  <path class="cls-1" d="M113.99,84.42c2.72,5.05,7.85,7.83,13.33,8.05,6.08.25,11.8-1.75,14.76-6.91,3.52,2.34,5.83,5.38,8.69,8.08-5.51,7.85-13.52,10.94-22.67,10.9-8.99-.04-17.1-3.07-23.12-10.24-10.07-11.99-10.09-30.2,0-42.2,5.82-6.91,13.65-10.09,22.37-10.21,9.26-.14,18.19,2.71,23.46,10.78-2.42,3.07-5.63,4.77-8.62,7.81-3.6-4.94-8.37-6.72-14.06-6.6-6.25.13-11.52,2.83-14.33,8.39-3.58,7.09-3.82,14.73.18,22.15Z"/>
</svg>